<svg
  xmlns="http://www.w3.org/2000/svg"
  viewBox="0 0 500 500"
  width="500"
  height="500"
>
  <path d="M200,300 C100,200 150,100 300,120 C450,140 450,260 350,320 Q300,350 200,300" fill="#FFD700" stroke="#000" stroke-width="2" />
  <circle cx="350" cy="180" r="30" fill="#FFD700" stroke="#000" stroke-width="2" />
  <circle cx="360" cy="180" r="10" fill="#000" />
  <circle cx="340" cy="180" r="10" fill="#000" />
  <circle cx="360" cy="180" r="5" fill="#FFF" />
  <circle cx="340" cy="180" r="5" fill="#FFF" />
  <path d="M200,320 C150,360 250,450 350,420 C400,400 380,360 320,350" fill="#FFD700" stroke="#000" stroke-width="2" />
  <path d="M150,300 C120,330 140,370 200,360 Q260,370 250,320" fill="#FFD700" stroke="#000" stroke-width="2" />
  <circle cx="220" cy="250" r="10" fill="#FFA500" />
  <circle cx="240" cy="270" r="10" fill="#FFA500" />
  <circle cx="260" cy="290" r="10" fill="#FFA500" />
  <circle cx="280" cy="310" r="10" fill="#FFA500" />
  <circle cx="300" cy="330" r="10" fill="#FFA500" />
  <path d="M100,280 Q80,320 120,340 Q160,360 200,330 Q180,300 120,300 Q110,290 100,280" fill="#FFD700" stroke="#000" stroke-width="2" />
</svg>